<svg viewBox="0 0 23 15" fill="none" xmlns="http://www.w3.org/2000/svg">
<path d="M2.15576 7.78125V12.0938C2.15576 12.2844 2.08004 12.4672 1.94524 12.602C1.81045 12.7368 1.62764 12.8125 1.43701 12.8125C1.24639 12.8125 1.06357 12.7368 0.928779 12.602C0.793987 12.4672 0.718262 12.2844 0.718262 12.0938V7.78125C0.718262 7.59063 0.793987 7.40781 0.928779 7.27302C1.06357 7.13823 1.24639 7.0625 1.43701 7.0625C1.62764 7.0625 1.81045 7.13823 1.94524 7.27302C2.08004 7.40781 2.15576 7.59063 2.15576 7.78125ZM4.31201 4.90625C4.12139 4.90625 3.93857 4.98198 3.80378 5.11677C3.66899 5.25156 3.59326 5.43438 3.59326 5.625V14.25C3.59326 14.4406 3.66899 14.6234 3.80378 14.7582C3.93857 14.893 4.12139 14.9688 4.31201 14.9688C4.50264 14.9688 4.68545 14.893 4.82025 14.7582C4.95504 14.6234 5.03076 14.4406 5.03076 14.25V5.625C5.03076 5.43438 4.95504 5.25156 4.82025 5.11677C4.68545 4.98198 4.50264 4.90625 4.31201 4.90625ZM7.18701 4.1875C6.99639 4.1875 6.81357 4.26323 6.67878 4.39802C6.54399 4.53281 6.46826 4.71563 6.46826 4.90625V14.25C6.46826 14.4406 6.54399 14.6234 6.67878 14.7582C6.81357 14.893 6.99639 14.9688 7.18701 14.9688C7.37764 14.9688 7.56045 14.893 7.69525 14.7582C7.83004 14.6234 7.90576 14.4406 7.90576 14.25V4.90625C7.90576 4.71563 7.83004 4.53281 7.69525 4.39802C7.56045 4.26323 7.37764 4.1875 7.18701 4.1875ZM10.062 1.3125C9.87139 1.3125 9.68857 1.38823 9.55378 1.52302C9.41899 1.65781 9.34326 1.84063 9.34326 2.03125V14.25C9.34326 14.4406 9.41899 14.6234 9.55378 14.7582C9.68857 14.893 9.87139 14.9688 10.062 14.9688C10.2526 14.9688 10.4355 14.893 10.5702 14.7582C10.705 14.6234 10.7808 14.4406 10.7808 14.25V2.03125C10.7808 1.84063 10.705 1.65781 10.5702 1.52302C10.4355 1.38823 10.2526 1.3125 10.062 1.3125ZM20.0203 6.55399C19.7311 4.88519 18.8619 3.37213 17.566 2.28168C16.27 1.19123 14.6307 0.593436 12.937 0.59375H12.5776C12.4823 0.59375 12.3909 0.631613 12.3235 0.699009C12.2561 0.766405 12.2183 0.857813 12.2183 0.953125V14.6094C12.2183 14.7047 12.2561 14.7961 12.3235 14.8635C12.3909 14.9309 12.4823 14.9688 12.5776 14.9688H18.616C20.9142 14.9688 22.863 13.197 22.9923 10.9024C23.046 9.95128 22.7837 9.00908 22.2461 8.22257C21.7086 7.43606 20.926 6.84941 20.0203 6.55399Z" fill="#fff"/>
</svg>
