<svg viewBox="0 0 26 22" fill="none" xmlns="http://www.w3.org/2000/svg">
<path fill-rule="evenodd" clip-rule="evenodd" d="M22.5219 0.150033C23.8818 -0.422555 25.3397 0.727358 25.0995 2.18322L22.2634 19.3791C21.9899 21.0371 20.1689 21.9885 18.6478 21.1622C17.3749 20.4709 15.4864 19.4067 13.7844 18.2946C12.9345 17.7392 10.3322 15.9585 10.652 14.6909C10.9255 13.607 15.3004 9.53461 17.8004 7.11273C18.7824 6.1614 18.3352 5.61181 17.1754 6.48773C14.2984 8.66061 9.67944 11.9642 8.15199 12.894C6.80432 13.7142 6.10068 13.8542 5.26136 13.7142C3.7287 13.4589 2.30774 13.0634 1.14764 12.5825C-0.420325 11.9325 -0.34395 9.77773 1.14658 9.15023L22.5219 0.150033Z" fill="#fff"/>
</svg>
