<svg viewBox="0 0 24 19" fill="none" xmlns="http://www.w3.org/2000/svg">
<path fill-rule="evenodd" clip-rule="evenodd" d="M0.616667 18.05C1.02778 18.4611 1.54022 18.6667 2.154 18.6667H21.846C22.4598 18.6667 22.9722 18.4611 23.3833 18.05C23.7944 17.6389 24 17.1264 24 16.5127V4.82067C24 4.20689 23.7944 3.69444 23.3833 3.28333C22.9722 2.87222 22.4598 2.66667 21.846 2.66667H11.4617L8.795 0H2.154C1.54022 0 1.02778 0.205556 0.616667 0.616667C0.205556 1.02778 0 1.54022 0 2.154V16.5127C0 17.1264 0.205556 17.6389 0.616667 18.05ZM13.0513 6.66667H11.718V12.9333L8.94367 10.159L8 11.1027L12.3847 15.487L16.8207 11.0513L15.877 10.1077L13.0513 12.9333V6.66667Z" fill="#fff"/>
</svg>
